<?xml version="1.0" encoding="UTF-8" standalone="no"?>
<svg xmlns="http://www.w3.org/2000/svg" viewBox="0 0 800 350" width="800" height="350">
  <!-- Audi Q6 rear view - white with coupe styling -->
  <style>
    .body { fill: #f5f5f5; }
    .windows { fill: #1e5799; }
    .lights { fill: #ff3300; }
    .wheels { fill: #333; }
    .rims { fill: #777; }
    .shadow { fill: rgba(0,0,0,0.2); }
    .highlight { fill: #fff; opacity: 0.1; }
    .details { fill: #ddd; }
    .exhaust { fill: #555; }
    .spoiler { fill: #e5e5e5; }
  </style>
  
  <!-- Car Shadow -->
  <ellipse class="shadow" cx="400" cy="310" rx="340" ry="30"/>
  
  <!-- Car Body - Q6 Sportback/Coupe style SUV Rear View -->
  <path class="body" d="M150,240 C110,240 100,210 80,190 C50,160 40,210 100,255 L150,270 L650,270 L700,255 C760,210 750,160 720,190 C700,210 690,240 650,240 L150,240 Z"/>
  
  <!-- Sloping rear window for coupe styling -->
  <path class="body" d="M150,240 L150,150 L200,110 L470,110 L590,150 L650,150 L650,240 L150,240 Z"/>
  
  <!-- Distinctive sloping C-pillar -->
  <path class="body" d="M470,110 L590,150 L540,150 L450,110 Z"/>
  
  <!-- Rear Window (sloping for coupe style) -->
  <path class="windows" d="M220,170 L250,130 L470,130 L560,170 L560,180 L220,180 Z"/>
  
  <!-- Tail Lights (connected light strip design) -->
  <rect class="lights" x="150" y="190" width="70" height="15" rx="2"/>
  <rect class="lights" x="230" y="190" width="340" height="5" rx="2"/>
  <rect class="lights" x="580" y="190" width="70" height="15" rx="2"/>
  
  <!-- License Plate Area -->
  <rect class="details" x="350" y="200" width="100" height="30" rx="5"/>
  <text x="400" y="220" font-family="Arial, sans-serif" font-size="12" text-anchor="middle" fill="#222">AUDI</text>
  
  <!-- Sporty Exhaust Pipes -->
  <rect class="exhaust" x="170" y="250" width="25" height="12" rx="6"/>
  <rect class="exhaust" x="205" y="250" width="25" height="12" rx="6"/>
  <rect class="exhaust" x="570" y="250" width="25" height="12" rx="6"/>
  <rect class="exhaust" x="605" y="250" width="25" height="12" rx="6"/>
  
  <!-- Wheels -->
  <circle class="wheels" cx="200" cy="255" r="38"/>
  <circle class="rims" cx="200" cy="255" r="21"/>
  <circle class="wheels" cx="600" cy="255" r="38"/>
  <circle class="rims" cx="600" cy="255" r="21"/>
  
  <!-- Body Highlights -->
  <path class="highlight" d="M150,150 L200,110 L470,110 L590,150 L650,150 L650,155 L150,155 Z"/>
  
  <!-- Audi Logo -->
  <circle class="details" cx="400" cy="165" r="15" fill="#ccc"/>
  <circle class="details" cx="385" cy="165" r="5" fill="#fff"/>
  <circle class="details" cx="400" cy="165" r="5" fill="#fff"/>
  <circle class="details" cx="415" cy="165" r="5" fill="#fff"/>
  <circle class="details" cx="385" cy="155" r="5" fill="#fff"/>
  
  <!-- Text Label -->
  <text x="400" y="330" font-family="Arial, sans-serif" font-size="20" text-anchor="middle" fill="#333">Audi Q6 - Rear View</text>
</svg>