<?xml version="1.0" encoding="UTF-8" standalone="no"?>
<svg xmlns="http://www.w3.org/2000/svg" viewBox="0 0 600 400" width="600" height="400">
  <g fill="#FFFFFF">
    <!-- Four rings -->
    <path d="M175,122 c-38,0-69,31-69,69 c0,38,31,69,69,69 c38,0,69-31,69-69 c0-38-31-69-69-69z M175,232 c-22.5,0-41-18.5-41-41 c0-22.5,18.5-41,41-41 c22.5,0,41,18.5,41,41 c0,22.5-18.5,41-41,41z"/>
    <path d="M260,122 c-38,0-69,31-69,69 c0,38,31,69,69,69 c38,0,69-31,69-69 c0-38-31-69-69-69z M260,232 c-22.5,0-41-18.5-41-41 c0-22.5,18.5-41,41-41 c22.5,0,41,18.5,41,41 c0,22.5-18.5,41-41,41z"/>
    <path d="M345,122 c-38,0-69,31-69,69 c0,38,31,69,69,69 c38,0,69-31,69-69 c0-38-31-69-69-69z M345,232 c-22.5,0-41-18.5-41-41 c0-22.5,18.5-41,41-41 c22.5,0,41,18.5,41,41 c0,22.5-18.5,41-41,41z"/>
    <path d="M430,122 c-38,0-69,31-69,69 c0,38,31,69,69,69 c38,0,69-31,69-69 c0-38-31-69-69-69z M430,232 c-22.5,0-41-18.5-41-41 c0-22.5,18.5-41,41-41 c22.5,0,41,18.5,41,41 c0,22.5-18.5,41-41,41z"/>
    
    <!-- AUDI text -->
    <path d="M225,290 l-25,50 h-20 l80-150 h25 l80,150 h-22 l-25-50 z M300,270 l-32.5-65 l-32.5,65 z"/>
    <path d="M360,290 c0,25,13,35,35,35 c22,0,35-10,35-35 v-100 h20 v100 c0,38-25,53-55,53 c-30,0-55-15-55-53 v-100 h20 z"/>
    <path d="M470,190 h20 v133 c0,0,50,0,50,0 v17 h-70 z"/>
    <path d="M550,190 h20 v150 h-20 z"/>
  </g>
</svg>