<?xml version="1.0" encoding="UTF-8" standalone="no"?>
<svg xmlns="http://www.w3.org/2000/svg" viewBox="0 0 600 260" width="600" height="260">
  <g fill="#FFFFFF">
    <!-- Four rings -->
    <path d="M175,122 c-38,0-69,31-69,69 c0,38,31,69,69,69 c38,0,69-31,69-69 c0-38-31-69-69-69z M175,232 c-22.5,0-41-18.5-41-41 c0-22.5,18.5-41,41-41 c22.5,0,41,18.5,41,41 c0,22.5-18.5,41-41,41z"/>
    <path d="M260,122 c-38,0-69,31-69,69 c0,38,31,69,69,69 c38,0,69-31,69-69 c0-38-31-69-69-69z M260,232 c-22.5,0-41-18.5-41-41 c0-22.5,18.5-41,41-41 c22.5,0,41,18.5,41,41 c0,22.5-18.5,41-41,41z"/>
    <path d="M345,122 c-38,0-69,31-69,69 c0,38,31,69,69,69 c38,0,69-31,69-69 c0-38-31-69-69-69z M345,232 c-22.5,0-41-18.5-41-41 c0-22.5,18.5-41,41-41 c22.5,0,41,18.5,41,41 c0,22.5-18.5,41-41,41z"/>
    <path d="M430,122 c-38,0-69,31-69,69 c0,38,31,69,69,69 c38,0,69-31,69-69 c0-38-31-69-69-69z M430,232 c-22.5,0-41-18.5-41-41 c0-22.5,18.5-41,41-41 c22.5,0,41,18.5,41,41 c0,22.5-18.5,41-41,41z"/>
  </g>
</svg>