<?xml version="1.0" encoding="UTF-8" standalone="no"?>
<svg xmlns="http://www.w3.org/2000/svg" viewBox="0 0 400 100" width="400" height="100">
  <g fill="#FFFFFF">
    <path d="M50,10 c-22,0-40,18-40,40 c0,22,18,40,40,40 c22,0,40-18,40-40 c0-22-18-40-40-40z M50,80 c-16.5,0-30-13.5-30-30 c0-16.5,13.5-30,30-30 c16.5,0,30,13.5,30,30 c0,16.5-13.5,30-30,30z"/>
    <path d="M130,10 c-22,0-40,18-40,40 c0,22,18,40,40,40 c22,0,40-18,40-40 c0-22-18-40-40-40z M130,80 c-16.5,0-30-13.5-30-30 c0-16.5,13.5-30,30-30 c16.5,0,30,13.5,30,30 c0,16.5-13.5,30-30,30z"/>
    <path d="M210,10 c-22,0-40,18-40,40 c0,22,18,40,40,40 c22,0,40-18,40-40 c0-22-18-40-40-40z M210,80 c-16.5,0-30-13.5-30-30 c0-16.5,13.5-30,30-30 c16.5,0,30,13.5,30,30 c0,16.5-13.5,30-30,30z"/>
    <path d="M290,10 c-22,0-40,18-40,40 c0,22,18,40,40,40 c22,0,40-18,40-40 c0-22-18-40-40-40z M290,80 c-16.5,0-30-13.5-30-30 c0-16.5,13.5-30,30-30 c16.5,0,30,13.5,30,30 c0,16.5-13.5,30-30,30z"/>
  </g>
</svg>